HIERARCHY
ROOT SpineBase
{
  OFFSET 0.000000 0.000000 0.000000
  CHANNELS 6 Xposition Yposition Zposition Zrotation Xrotation Yrotation
  JOINT SpineMid
  {
    OFFSET -0.000000 26.131866 0.000000
    CHANNELS 3 Zrotation Xrotation Yrotation
    JOINT SpineShoulder
    {
      OFFSET -0.036513 19.432170 -0.701040
      CHANNELS 3 Zrotation Xrotation Yrotation
      JOINT Neck
      {
        OFFSET -0.032604 6.422999 -0.519708
        CHANNELS 3 Zrotation Xrotation Yrotation
        JOINT Head
        {
          OFFSET 3.136438 10.554808 -0.160136
          CHANNELS 3 Zrotation Xrotation Yrotation
          End Site
          {
            OFFSET 0 0 0
          }
        }
      }
      JOINT ShoulderLeft
      {
        OFFSET -11.236212 -2.036767 -7.349393
        CHANNELS 3 Zrotation Xrotation Yrotation
        JOINT ElbowLeft
        {
          OFFSET -7.981310 -18.109465 -1.032551
          CHANNELS 3 Zrotation Xrotation Yrotation
          JOINT WristLeft
          {
            OFFSET 25.596690 1.913389 -8.290046
            CHANNELS 3 Zrotation Xrotation Yrotation
            JOINT HandLeft
            {
              OFFSET 5.442392 -0.516570 1.020959
              CHANNELS 3 Zrotation Xrotation Yrotation
              JOINT HandTipLeft
              {
                OFFSET 3.021061 2.009929 -1.592270
                CHANNELS 3 Zrotation Xrotation Yrotation
                End Site
                {
                  OFFSET 0 0 0
                }
              }
              JOINT ThumbLeft
              {
                OFFSET 1.408888 -4.023251 1.613102
                CHANNELS 3 Zrotation Xrotation Yrotation
                End Site
                {
                  OFFSET 0 0 0
                }
              }
            }
          }
        }
      }
      JOINT ShoulderRight
      {
        OFFSET 10.461380 -3.439007 4.105127
        CHANNELS 3 Zrotation Xrotation Yrotation
        JOINT ElbowRight
        {
          OFFSET 2.846860 -15.318814 -16.503655
          CHANNELS 3 Zrotation Xrotation Yrotation
          JOINT WristRight
          {
            OFFSET -5.841501 7.899277 -18.767226
            CHANNELS 3 Zrotation Xrotation Yrotation
            JOINT HandRight
            {
              OFFSET 1.498541 1.102706 -5.285861
              CHANNELS 3 Zrotation Xrotation Yrotation
              JOINT HandTipRight
              {
                OFFSET -2.671702 0.167890 -2.271669
                CHANNELS 3 Zrotation Xrotation Yrotation
                End Site
                {
                  OFFSET 0 0 0
                }
              }
              JOINT ThumbRight
              {
                OFFSET -3.346552 -0.062193 -2.139449
                CHANNELS 3 Zrotation Xrotation Yrotation
                End Site
                {
                  OFFSET 0 0 0
                }
              }
            }
          }
        }
      }
    }
  }
  JOINT HipLeft
  {
    OFFSET -5.236179 0.875425 -5.417840
    CHANNELS 3 Zrotation Xrotation Yrotation
    JOINT KneeLeft
    {
      OFFSET -5.480144 -33.945606 2.380991
      CHANNELS 3 Zrotation Xrotation Yrotation
      JOINT AnkleLeft
      {
        OFFSET -2.813337 -31.864385 9.538021
        CHANNELS 3 Zrotation Xrotation Yrotation
        JOINT FootLeft
        {
          OFFSET 1.888762 -5.105012 -9.628181
          CHANNELS 3 Zrotation Xrotation Yrotation
          End Site
          {
            OFFSET 0 0 0
          }
        }
      }
    }
  }
  JOINT HipRight
  {
    OFFSET 5.029304 0.145404 -0.779451
    CHANNELS 3 Zrotation Xrotation Yrotation
    JOINT KneeRight
    {
      OFFSET -1.379457 -30.963404 5.667576
      CHANNELS 3 Zrotation Xrotation Yrotation
      JOINT AnkleRight
      {
        OFFSET -5.095065 -34.950956 9.283414
        CHANNELS 3 Zrotation Xrotation Yrotation
        JOINT FootRight
        {
          OFFSET -1.394908 -4.651324 -7.983251
          CHANNELS 3 Zrotation Xrotation Yrotation
          End Site
          {
            OFFSET 0 0 0
          }
        }
      }
    }
  }
}
MOTION
Frames: 5
Frame Time: 0.033333
13.238836 71.826023 372.501695 0.000000 0.000000 -24.315510 -0.000000 0.000000 24.315510 -0.000000 0.000000 0.000000 -0.000000 0.000000 0.000000 0.000000 0.000000 0.000000 -0.000000 0.000000 0.000000 -0.000000 0.000000 0.000000 -0.000000 0.000000 0.000000 -0.000000 0.000000 0.000000 0.000000 0.000000 0.000000 0.000000 0.000000 0.000000 -0.000000 0.000000 0.000000 -0.000000 0.000000 0.000000 -0.000000 0.000000 0.000000 -0.000000 0.000000 0.000000 0.000000 0.000000 0.000000 0.000000 0.000000 0.000000 -0.000000 0.000000 24.315510 -0.000000 0.000000 0.000000 -0.000000 0.000000 0.000000 0.000000 0.000000 0.000000 -0.000000 0.000000 24.315510 -0.000000 0.000000 0.000000 -0.000000 0.000000 0.000000 0.000000 0.000000 0.000000
13.229593 71.803135 372.457650 -0.047112 0.021245 -24.367485 0.051680 0.000085 24.367493 -0.000000 0.000000 0.000000 -0.000000 0.000000 0.000000 0.000000 0.000000 0.000000 -0.000000 0.000000 0.000000 -0.000000 0.000000 0.000000 -0.775186 0.091108 -0.616526 -8.366014 3.381588 -10.598157 0.000000 0.000000 0.000000 0.000000 0.000000 0.000000 -0.000000 0.000000 0.000000 -0.000000 0.000000 0.000000 -0.000000 0.000000 0.000000 -0.000000 0.000000 0.000000 0.000000 0.000000 0.000000 0.000000 0.000000 0.000000 0.051680 0.000085 24.367493 -0.000000 0.000000 0.000000 2.243163 -1.622078 -4.891881 0.000000 0.000000 0.000000 0.051680 0.000085 24.367493 -0.000000 0.000000 0.000000 3.621571 1.179633 -6.548178 0.000000 0.000000 0.000000
13.227923 71.780449 372.420189 -0.071692 0.035888 -24.409491 0.080114 -0.003053 24.409515 -0.000000 0.000000 0.000000 -0.000000 0.000000 0.000000 0.000000 0.000000 0.000000 -0.000000 0.000000 0.000000 -0.000000 0.000000 0.000000 -1.381961 0.172294 -1.050771 -15.596058 8.249411 -20.487202 0.000000 0.000000 0.000000 0.000000 0.000000 0.000000 -0.510840 -0.609614 0.437210 0.515505 0.605674 -0.442653 -0.000000 0.000000 0.000000 -0.000000 0.000000 0.000000 0.000000 0.000000 0.000000 0.000000 0.000000 0.000000 0.080114 -0.003053 24.409515 -0.000000 0.000000 0.000000 4.168616 -3.098436 -9.226594 0.000000 0.000000 0.000000 -0.921097 -0.718131 24.192997 1.206323 0.241870 0.207670 6.379109 1.595966 -11.407467 0.000000 0.000000 0.000000
13.233825 71.757967 372.389311 -0.073730 0.043925 -24.441549 0.085297 -0.009481 24.441585 -0.000000 0.000000 0.000000 0.859496 -0.389232 0.131911 0.000000 0.000000 0.000000 -0.000000 0.000000 0.000000 -0.000000 0.000000 0.000000 -1.836003 0.240847 -1.315121 -19.890899 12.714648 -27.455204 0.000000 0.000000 0.000000 0.000000 0.000000 0.000000 -0.630559 -0.902413 0.511522 0.638668 0.896693 -0.521485 -0.000000 0.000000 0.000000 -0.000000 0.000000 0.000000 0.000000 0.000000 0.000000 0.000000 0.000000 0.000000 0.085297 -0.009481 24.441585 -0.000000 0.000000 0.000000 5.711289 -4.241918 -12.743879 0.000000 0.000000 0.000000 -1.207068 -0.947481 24.158921 1.563070 0.326708 0.267413 8.256424 1.507302 -14.661971 0.000000 0.000000 0.000000
13.247301 71.735687 372.365016 -0.053221 0.045354 -24.463670 0.067224 -0.019242 24.463702 -0.000000 0.000000 0.000000 0.876384 -0.482905 0.160845 0.000000 0.000000 0.000000 -0.666655 -0.517756 0.262583 1.267463 0.654007 0.468816 -2.742061 0.188636 -2.163565 -21.119949 15.359077 -31.010290 0.000000 0.000000 0.000000 0.000000 0.000000 0.000000 -0.665853 -1.190807 0.495210 0.676264 1.184927 -0.509123 -0.000000 0.000000 0.000000 -0.000000 0.000000 0.000000 0.000000 0.000000 0.000000 0.000000 0.000000 0.000000 0.067224 -0.019242 24.463702 -0.000000 0.000000 0.000000 6.851209 -4.898798 -15.264963 0.000000 0.000000 0.000000 -1.393281 -1.102160 24.141364 1.775679 0.390556 0.301992 9.311163 1.075927 -16.450318 0.000000 0.000000 0.000000
